<?xml version="1.0" standalone="no"?>
<!DOCTYPE svg PUBLIC "-//W3C//DTD SVG 20010904//EN"
 "http://www.w3.org/TR/2001/REC-SVG-20010904/DTD/svg10.dtd">
<svg version="1.0" xmlns="http://www.w3.org/2000/svg"
 width="1100.000000pt" height="577.000000pt" viewBox="0 0 1100.000000 577.000000"
 preserveAspectRatio="xMidYMid meet">
<metadata>
Created by potrace 1.16, written by Peter Selinger 2001-2019
</metadata>
<g transform="translate(0.000000,577.000000) scale(0.100000,-0.100000)"
fill="#000000" stroke="none">
<path d="M2003 5714 c-138 -49 -227 -237 -179 -380 16 -50 31 -72 222 -336
191 -265 376 -522 403 -559 14 -20 47 -66 74 -102 26 -36 47 -69 47 -74 0 -4
-21 -19 -47 -33 -82 -43 -342 -218 -488 -328 -223 -168 -383 -307 -585 -511
-323 -325 -557 -633 -812 -1066 -165 -280 -318 -641 -441 -1040 -78 -253 -153
-667 -176 -971 -18 -229 -17 -240 23 -280 l34 -34 5439 0 c4906 0 5441 2 5461
16 22 15 22 19 22 251 0 186 -4 265 -21 377 -129 884 -503 1708 -1099 2426
-195 235 -535 564 -785 761 -110 86 -355 259 -460 324 -53 33 -106 67 -117 76
-23 17 -40 -9 422 629 337 465 330 452 330 571 0 116 -52 204 -156 265 -66 39
-189 46 -258 15 -80 -35 -116 -72 -249 -258 -71 -98 -238 -331 -373 -518 -322
-448 -289 -408 -322 -391 -15 8 -90 40 -167 71 -572 232 -1110 360 -1755 417
-208 18 -781 15 -995 -5 -618 -59 -1142 -186 -1693 -409 -95 -39 -174 -69
-176 -67 -19 28 -281 392 -452 628 -120 167 -238 331 -261 365 -58 83 -132
150 -189 170 -58 20 -165 20 -221 0z m135 -220 c20 -6 203 -252 742 -1004 73
-102 142 -190 154 -197 39 -22 75 -14 239 57 554 237 1060 369 1672 436 201
22 739 30 961 15 686 -48 1367 -222 1969 -501 72 -33 98 -41 128 -37 42 6 72
27 93 68 17 33 799 1117 824 1143 44 45 128 6 116 -55 -3 -14 -187 -278 -410
-587 -223 -309 -410 -570 -415 -581 -6 -11 -11 -31 -11 -46 0 -50 27 -81 112
-131 696 -405 1275 -941 1695 -1570 351 -526 593 -1111 707 -1714 31 -164 66
-431 66 -505 l0 -55 -5266 0 -5265 0 6 73 c99 1136 583 2155 1412 2968 319
312 622 545 1018 780 133 79 160 99 172 128 9 20 12 47 9 65 -4 19 -165 251
-407 586 -221 305 -405 564 -409 575 -10 28 7 70 33 83 27 13 27 13 55 6z"/>
<path d="M3040 2898 c-54 -18 -134 -104 -149 -161 -16 -57 -10 -141 15 -188 9
-19 89 -107 177 -197 l161 -162 -161 -163 c-88 -89 -168 -177 -178 -196 -23
-46 -30 -131 -15 -186 17 -61 77 -127 141 -155 62 -26 141 -25 204 5 23 11
109 87 202 179 l163 160 167 -165 c140 -138 176 -168 217 -182 69 -24 131 -21
191 7 121 57 172 182 128 312 -14 41 -44 77 -181 216 l-165 168 159 162 c91
93 168 180 179 203 81 172 -52 368 -240 353 -34 -3 -76 -13 -95 -23 -19 -10
-108 -90 -197 -178 l-163 -161 -162 161 c-90 88 -179 168 -198 178 -42 22
-151 29 -200 13z"/>
<path d="M6952 2884 c-65 -32 -108 -84 -128 -153 -18 -60 -14 -122 12 -174 9
-17 91 -107 182 -199 l167 -168 -167 -167 c-91 -93 -173 -182 -182 -199 -76
-154 32 -337 207 -351 104 -9 137 12 322 197 88 88 164 160 169 160 6 0 87
-76 180 -168 183 -180 203 -193 297 -192 135 2 243 112 242 249 -1 93 -20 121
-201 303 l-166 168 166 168 c184 184 200 210 200 308 1 102 -58 188 -155 229
-49 20 -142 19 -192 -4 -23 -10 -99 -76 -181 -157 -78 -76 -153 -150 -168
-164 l-27 -24 -162 162 c-111 110 -176 168 -207 181 -65 30 -143 28 -208 -5z"/>
</g>
</svg>
